<?xml version="1.0" standalone="no"?>
<!DOCTYPE svg PUBLIC "-//W3C//DTD SVG 20010904//EN"
 "http://www.w3.org/TR/2001/REC-SVG-20010904/DTD/svg10.dtd">
<svg version="1.0" xmlns="http://www.w3.org/2000/svg"
 width="400.000000pt" height="92.000000pt" viewBox="0 0 400.000000 92.000000"
 preserveAspectRatio="xMidYMid meet">

<g transform="translate(0.000000,92.000000) scale(0.100000,-0.100000)"
fill="#000000" stroke="none">
<path d="M1746 717 c-13 -13 -51 -78 -86 -145 -52 -103 -70 -129 -116 -166
-83 -68 -165 -87 -172 -39 -3 17 5 24 45 37 65 21 119 60 139 97 14 27 14 33
0 54 -32 49 -108 36 -162 -28 -37 -44 -74 -122 -74 -156 0 -79 116 -81 217 -4
33 26 35 26 24 5 -17 -31 1 -62 37 -62 35 1 98 30 140 64 35 30 37 30 22 -8
-12 -32 9 -56 48 -56 27 0 125 50 137 70 11 18 25 11 25 -13 0 -30 29 -57 61
-57 13 0 41 14 62 31 21 17 34 24 31 15 -8 -22 13 -46 40 -46 27 0 92 52 151
121 69 81 39 70 -48 -16 -42 -42 -81 -74 -87 -70 -7 4 6 38 35 93 25 47 43 92
41 99 -11 27 -36 11 -70 -44 -70 -116 -130 -169 -157 -137 -29 35 48 146 127
183 42 20 45 24 31 38 -13 13 -21 13 -52 3 -35 -11 -55 -29 -156 -136 -52 -56
-145 -112 -161 -96 -16 16 26 85 72 117 94 65 175 182 157 229 -3 8 -18 22
-32 32 -45 29 -67 9 -136 -127 -65 -127 -109 -181 -183 -224 -59 -33 -86 -40
-86 -21 0 31 33 83 64 102 57 33 129 108 152 159 30 63 30 70 -1 100 -30 31
-49 31 -79 2z m55 -91 c-19 -43 -118 -153 -128 -142 -6 5 83 173 105 199 14
15 18 16 30 3 12 -12 11 -20 -7 -60z m214 64 c20 -32 -47 -142 -115 -190 l-31
-22 42 83 c63 126 87 156 104 129z m-489 -155 c10 -25 -22 -61 -77 -89 -29
-14 -55 -24 -57 -21 -9 9 53 88 83 107 36 22 44 22 51 3z"/>
<path d="M3220 720 c-11 -11 -46 -73 -79 -138 -63 -125 -111 -181 -191 -222
-50 -26 -94 -24 -98 5 -2 16 10 26 62 49 72 31 129 85 124 118 -2 12 -15 30
-29 41 -39 28 -87 10 -141 -55 -126 -147 -178 -193 -193 -168 -4 6 23 66 58
133 l65 122 43 5 c52 6 58 24 11 28 -23 2 -32 8 -29 16 6 15 -11 36 -29 36 -6
0 -17 -13 -24 -29 -8 -20 -20 -31 -36 -33 -14 -2 -23 -7 -22 -13 2 -5 9 -9 16
-9 6 1 12 -1 12 -5 -1 -3 -29 -62 -64 -130 -35 -68 -62 -130 -59 -138 14 -36
91 -23 134 23 26 28 39 31 39 9 0 -8 9 -24 20 -35 36 -36 123 -21 195 35 l32
24 -5 -25 c-2 -13 1 -31 8 -39 25 -30 76 -16 167 46 l41 29 -11 -29 c-13 -36
3 -61 40 -61 25 0 89 29 136 62 26 19 27 19 27 1 0 -10 7 -29 16 -41 23 -33
66 -29 110 10 21 18 35 26 32 18 -8 -24 11 -50 36 -50 13 0 41 13 63 29 44 32
137 140 128 149 -3 3 -34 -24 -68 -59 -114 -120 -136 -112 -62 22 25 45 42 85
39 90 -14 24 -42 4 -79 -57 -43 -70 -118 -148 -138 -141 -7 2 -13 17 -15 33
-5 47 53 123 116 154 51 25 64 43 38 53 -30 12 -86 -14 -128 -60 -96 -104
-136 -140 -181 -162 -25 -12 -51 -20 -56 -17 -5 4 -3 22 6 46 12 29 34 53 83
89 129 94 179 215 103 250 -42 19 -70 -10 -140 -145 -43 -83 -74 -131 -105
-158 -54 -48 -137 -91 -150 -78 -13 13 26 88 55 103 38 21 138 122 158 161 26
51 24 82 -7 107 -33 26 -49 26 -74 1z m62 -78 c-13 -42 -66 -109 -115 -144
-31 -22 -31 -22 22 77 29 55 60 106 69 113 26 20 37 -1 24 -46z m208 27 c0
-35 -36 -93 -89 -142 -27 -26 -52 -47 -55 -47 -7 0 89 180 108 202 19 22 36
16 36 -13z m-483 -135 c6 -19 -38 -64 -88 -89 -26 -14 -51 -25 -54 -25 -14 0
28 60 65 94 40 36 69 43 77 20z"/>
<path d="M487 690 c-14 -11 -51 -71 -83 -133 -83 -163 -101 -189 -124 -182
-29 9 -62 -12 -58 -38 2 -16 11 -23 31 -25 17 -2 41 -17 57 -36 89 -100 279
-127 367 -52 37 32 25 41 -31 22 -99 -34 -227 -14 -299 45 l-37 31 32 38 c18
21 61 92 95 157 67 128 96 166 121 161 28 -5 26 -44 -4 -71 -26 -24 -26 -47 0
-47 20 0 55 43 62 77 13 63 -72 98 -129 53z"/>
<path d="M1111 688 c-51 -25 -81 -69 -81 -120 0 -27 5 -40 20 -48 22 -12 23
-9 20 32 -3 53 42 111 101 128 76 22 143 -21 123 -78 -11 -32 -68 -72 -100
-72 -30 0 -29 5 1 55 30 48 30 51 6 65 -17 9 -26 -2 -81 -108 -35 -64 -74
-138 -88 -165 l-25 -47 23 -25 c42 -45 164 -22 219 40 38 44 43 106 11 140
l-21 22 31 13 c63 26 96 92 70 141 -28 51 -150 66 -229 27z m97 -204 c27 -19
30 -78 6 -113 -21 -29 -72 -51 -119 -51 l-35 0 45 90 c48 95 60 104 103 74z"/>
<path d="M2515 677 c-52 -52 -54 -77 -11 -158 44 -86 45 -109 5 -143 -36 -31
-103 -37 -113 -10 -11 28 -6 51 14 69 11 10 20 24 20 32 0 23 -37 14 -56 -14
-25 -39 -23 -87 6 -118 47 -50 163 -23 197 45 20 40 15 80 -17 137 -36 63 -38
102 -7 130 44 40 87 39 87 -2 0 -12 -7 -28 -15 -35 -18 -15 -20 -36 -4 -46 16
-9 47 26 55 61 9 49 -26 85 -83 85 -38 0 -50 -5 -78 -33z"/>
<path d="M682 569 c-69 -34 -142 -138 -142 -202 0 -13 8 -31 18 -40 28 -26 67
-21 107 14 20 18 33 24 29 15 -8 -21 13 -46 40 -46 11 0 40 15 63 33 48 35
138 140 125 145 -4 1 -42 -32 -84 -74 -44 -43 -81 -73 -88 -69 -7 4 5 36 35
93 25 47 43 92 41 99 -11 28 -34 10 -80 -61 -43 -69 -105 -136 -125 -136 -5 0
-14 7 -21 15 -28 33 45 142 121 180 42 22 48 29 39 41 -16 19 -27 18 -78 -7z"/>
</g>
</svg>
